# xmcd CD database file
# Copyright (C) 1993-1998 Ti Kan
#
# Track frame offsets:
#	150
#	22677
#	50060
#	75370
#	87879
#	119855
#	132717
#	156847
#	169645
#	190445
#	204557
#	219507
#	233612
#	248692
#	268850
#
# Disc length: 3924 seconds
#
# Revision: 1
# Processed by: cddbd v1.4b41PL1 Copyright (c) Steve Scherf et al.
# Submitted via: xmcd 2.2 PL0
#
DISCID=cf0f520f
DTITLE=Various Artist - Andrew Vachss' Safe House (A Collection of the Blues)
DYEAR=1900
DGENRE=
TTITLE0=The Paul Butterfield Blues Band - I Got A Mind To Give Up Living
TTITLE1=Katie Webster - Pussycat Moan
TTITLE2=Buddy Guy - One Room Country Shack
TTITLE3=Irma Thomas - Time Is On My Side (Live)
TTITLE4=Son Seals - Going Back Home
TTITLE5=Howlin' Wolf - I Asked For Water (She Gave Me Gasoline)
TTITLE6=Little Charlie and The Nightcats - Rain
TTITLE7=Sonny Boy Williamson - Early In The Morning
TTITLE8=Otis Spann - Some Day
TTITLE9=Judy Henske - Till The Real Thing Comes Along
TTITLE10=Muddy Waters - She's Nineteen Years Old
TTITLE11=Leadbelly with The Golden Gate Jubilee Quartet - Midnight Specia
TTITLE11=l
TTITLE12=Charley Musselwhite - Baby, Will You Please Help Me
TTITLE13=Marcia Ball - Another Man's Woman
TTITLE14=Bazza - Ghost
EXTD=
EXTT0=
EXTT1=
EXTT2=
EXTT3=
EXTT4=
EXTT5=
EXTT6=
EXTT7=
EXTT8=
EXTT9=
EXTT10=
EXTT11=
EXTT12=
EXTT13=
EXTT14=
PLAYORDER=
